<svg xmlns="http://www.w3.org/2000/svg" viewBox="0 0 502.21 39.78"><defs><style>.cls-1{fill:#c2b59b;}.cls-2{fill:#726658;}</style></defs><g id="Layer_2" data-name="Layer 2"><g id="Layer_1-2" data-name="Layer 1"><path class="cls-1" d="M0,21.39V18.64L16.44,5.12l.31,3.49L3.34,20,16.75,31.47,16.44,35Z"/><path class="cls-1" d="M61.2,32.46l-1.8,2.18c-2.37,2.62-5.71,4.87-9.65,4.87-7,0-11.35-4.67-11.35-10.6,0-3.73,2.19-6.52,5.75-9.26l2.51-1.89c-3.72-3.94-5.6-5.8-5.6-9.2,0-4.72,3.75-8.29,8.84-8.29,5.35,0,9,3.56,9,8.29,0,4.43-2.67,6.23-7.18,9.7L61,27.87l5.78-7.36L69,22.58,63.15,30l6.91,6.92-2.13,2.42Zm-3.94,0,1.82-2.24L48.91,19.85l-2.26,1.64c-2.74,2-5,4.24-5,7.43,0,4.34,3.31,7.57,8.14,7.57C53,36.49,55.52,34.53,57.26,32.44ZM55.62,8.49c0-3.2-2.28-5.39-5.72-5.39s-5.75,2.22-5.75,5.39c0,2.74,1.91,4.3,5.16,7.72C53.36,13.19,55.62,12,55.62,8.49Z"/><path class="cls-1" d="M90.6.69h3.46V39.08H90.6Z"/><path class="cls-2" d="M115.74,19.86C115.74,8.8,124.49.16,136,.16a21.69,21.69,0,0,1,15.49,6.32l-2.64,2.13A18.12,18.12,0,0,0,136,3.42c-9.56,0-16.85,7.08-16.85,16.44S126.46,36.38,136,36.38a18.11,18.11,0,0,0,13-5.24l2.66,2A21.63,21.63,0,0,1,136,39.63C124.45,39.63,115.74,31,115.74,19.86Z"/><path class="cls-2" d="M169.92,19.92C169.92,8.9,178.59,0,190.4,0S211,8.9,211,19.92s-8.67,19.86-20.55,19.86S169.92,30.86,169.92,19.92Zm37.58,0c0-9.28-7.28-16.67-17.11-16.67s-17,7.39-17,16.67,7.29,16.6,17,16.6S207.5,29.13,207.5,19.92Z"/><path class="cls-2" d="M232.62.7h3.49L264,34.28V.69h3.44v38.4H263.9L236.07,5.58V39.09h-3.45Z"/><path class="cls-2" d="M291.3.7h3.49l27.87,33.58V.69h3.44v38.4h-3.52L294.75,5.58V39.09H291.3Z"/><path class="cls-2" d="M350,.69h29.65V3.83H353.42V16.74H373v3.1H353.42v16h26.23v3.18H350Z"/><path class="cls-2" d="M427.06,39.08,404.73,21.42V39.08h-3.45V.69h17.6c7.87,0,13.5,3.69,13.5,10.9,0,7.37-5.37,10.88-13.27,10.88h-8L432.5,39.08ZM404.73,19.3h14.39c5.66,0,9.71-2.35,9.71-7.71s-4.05-7.74-9.71-7.74H404.73Z"/><path class="cls-2" d="M463.54.69h3.28L452.23,39.06h-3.37Z"/><path class="cls-2" d="M485.46,31.47,498.88,20,485.46,8.61l.31-3.49,16.44,13.52v2.75L485.77,35Z"/></g></g></svg>